<svg xmlns="http://www.w3.org/2000/svg" width="132.032" height="47.704" viewBox="0 0 132.032 47.704"><g transform="translate(-45.922 -162.016)"><path d="M368.7,323.561V311.985h14.715v1.362H371.4v3.546h11.275v1.363H371.4V322.2h12.493v1.363Z" transform="translate(-265.898 -123.542)" fill="#d49d00" fill-rule="evenodd"/><path d="M255.421,318.919l2.569-.133a2.826,2.826,0,0,0,1.958,2.037,11.27,11.27,0,0,0,4.043.64,9.6,9.6,0,0,0,3.794-.577c.841-.386,1.264-.851,1.264-1.4a1.206,1.206,0,0,0-.626-.993,4.807,4.807,0,0,0-1.712-.642q-1.077-.225-3.873-.585a30.832,30.832,0,0,1-3.476-.61,6.292,6.292,0,0,1-2.284-1.022,1.955,1.955,0,0,1-.871-1.6,2.113,2.113,0,0,1,.841-1.685,6.431,6.431,0,0,1,2.525-1.094,16.379,16.379,0,0,1,3.8-.407,13.017,13.017,0,0,1,5.617.955,3.16,3.16,0,0,1,2.058,2.509l-2.566.106c-.282-1.487-1.946-2.23-4.971-2.23q-4.691,0-4.694,1.747a1.05,1.05,0,0,0,.572.884,4.293,4.293,0,0,0,1.474.55c.6.123,1.538.263,2.8.425a42.566,42.566,0,0,1,4.566.743,8.218,8.218,0,0,1,1.938.737,3.372,3.372,0,0,1,1.123.936,1.94,1.94,0,0,1,.369,1.15q0,1.623-2.2,2.541a13.759,13.759,0,0,1-5.347.919,14.854,14.854,0,0,1-6.393-1.077A3.517,3.517,0,0,1,255.421,318.919Z" transform="translate(-172.582 -122.61)" fill="#d49d00" fill-rule="evenodd"/><path d="M147.831,318.919l2.569-.133a2.822,2.822,0,0,0,1.959,2.037,11.267,11.267,0,0,0,4.042.64,9.6,9.6,0,0,0,3.794-.577c.841-.386,1.264-.851,1.264-1.4a1.213,1.213,0,0,0-.625-.993,4.808,4.808,0,0,0-1.712-.642q-1.077-.225-3.873-.585a30.851,30.851,0,0,1-3.476-.61,6.323,6.323,0,0,1-2.286-1.022,1.959,1.959,0,0,1-.869-1.6,2.114,2.114,0,0,1,.841-1.685,6.432,6.432,0,0,1,2.525-1.094,16.381,16.381,0,0,1,3.8-.407,13.016,13.016,0,0,1,5.616.955,3.168,3.168,0,0,1,2.061,2.509l-2.568.106c-.285-1.487-1.946-2.23-4.971-2.23q-4.691,0-4.694,1.747a1.05,1.05,0,0,0,.571.884,4.3,4.3,0,0,0,1.471.55q.908.184,2.8.425a42.593,42.593,0,0,1,4.563.743,8.153,8.153,0,0,1,1.935.737,3.357,3.357,0,0,1,1.125.936,1.94,1.94,0,0,1,.369,1.15q0,1.623-2.2,2.541a13.75,13.75,0,0,1-5.347.919,14.863,14.863,0,0,1-6.393-1.077A3.517,3.517,0,0,1,147.831,318.919Z" transform="translate(-83.951 -122.61)" fill="#d49d00" fill-rule="evenodd"/><path d="M45.93,323.561V311.985H60.644v1.362H48.629v3.546H59.9v1.363H48.629V322.2H61.123v1.363Z" transform="translate(-0.006 -123.542)" fill="#d49d00" fill-rule="evenodd"/><path d="M399.232,298.423l4.184-2.357-1.794-.1-2.766,2.3Z" transform="translate(-290.74 -110.345)" fill="#d49d00" fill-rule="evenodd"/><path d="M709.019,323.561V311.985h14.706v1.362h-12.01v3.546h11.269v1.363H711.716V322.2H724.2v1.363Z" transform="translate(-546.249 -123.542)" fill="#d49d00" fill-rule="evenodd"/><path d="M603,318.563l2.7.39q-1.742,3.872-8.436,3.873-4.9,0-7.221-1.746a5.251,5.251,0,0,1-2.315-4.331,4.738,4.738,0,0,1,2.761-4.411,14.3,14.3,0,0,1,6.826-1.486q6.31,0,8.039,3.356l-2.658.364c-.907-1.6-2.717-2.406-5.445-2.406a8.83,8.83,0,0,0-5.042,1.211,4.288,4.288,0,0,0,.146,7,8.93,8.93,0,0,0,4.691,1.132C600.265,321.514,602.244,320.531,603,318.563Z" transform="translate(-446.328 -122.61)" fill="#d49d00" fill-rule="evenodd"/><path d="M475.8,323.561V311.985h2.756l10.695,9.094v-9.094h2.612v11.576h-2.779l-10.718-9.109v9.109Z" transform="translate(-354.127 -123.542)" fill="#d49d00" fill-rule="evenodd"/><rect width="22.053" height="1.288" transform="translate(45.922 207.068)" fill="#fff"/><rect width="22.043" height="1.288" transform="translate(155.912 207.068)" fill="#fff"/><path d="M437.009,181.631h-6.87l-6.639-6.273a8.765,8.765,0,0,0-1.541-1.192,7.534,7.534,0,0,0-1.692-.748,11.209,11.209,0,0,0-1.987-.4,22.53,22.53,0,0,0-2.412-.118H413v8.732h-6.092V162.016h11.972a51.241,51.241,0,0,1,6.7.374,21.188,21.188,0,0,1,4.6,1.052,6.487,6.487,0,0,1,2.635,1.628,3.112,3.112,0,0,1,.841,2.112,2.845,2.845,0,0,1-.615,1.731A5.611,5.611,0,0,1,431.2,170.4a13.876,13.876,0,0,1-3,1.16,27.019,27.019,0,0,1-4.119.726,9.789,9.789,0,0,1,3.184.994,15.358,15.358,0,0,1,2.7,1.9l7.044,6.456ZM427.281,167.4q0-1.576-2.24-2.356a20.029,20.029,0,0,0-6.3-.779H413v6.486h4.924a30.29,30.29,0,0,0,3.871-.219,13.846,13.846,0,0,0,2.943-.645,5.334,5.334,0,0,0,1.881-1.051A1.919,1.919,0,0,0,427.281,167.4Z" transform="translate(-297.373 0)" fill="#fff" fill-rule="evenodd"/><path d="M617.975,181.631h-6.629l-3.089-4.274H592.964l1.671-2.4h11.884l-7.58-10.5-6.56,9.057h-.005l-3.412,4.685h.023l-2.481,3.429h-6.321l14.827-19.615h8.339Z" transform="translate(-440.115)" fill="#fff" fill-rule="evenodd"/><path d="M262.588,181.631H237.172V162.016h25.416v2.244H243.263v6.088h18.58v2.245h-18.58v6.763h19.326Z" transform="translate(-157.548)" fill="#fff" fill-rule="evenodd"/><path d="M76.4,181.631H68.744l-16.731-9.618v9.618H45.922V162.016h6.091v9.126L68.4,162.016h7.211l-17.644,9.326Z" fill="#fff" fill-rule="evenodd"/><path d="M200.543,413.9v-3.884h2.735c.479,0,.848.012,1.1.037a3.569,3.569,0,0,1,.895.18,1.516,1.516,0,0,1,.585.375.778.778,0,0,1,.218.53.978.978,0,0,1-.59.835,4.6,4.6,0,0,1-2.125.343H201.5V413.9Zm.961-2.038h1.869a3.362,3.362,0,0,0,1.323-.185.576.576,0,0,0,.39-.524.5.5,0,0,0-.231-.416,1.3,1.3,0,0,0-.6-.23,7.462,7.462,0,0,0-.892-.035H201.5v1.39Zm5.806,2.038v-3.884h3.212a7.657,7.657,0,0,1,1.471.105,1.712,1.712,0,0,1,.8.369.771.771,0,0,1,.3.584.815.815,0,0,1-.5.7,3.813,3.813,0,0,1-1.538.361,3.263,3.263,0,0,1,.577.193,3.949,3.949,0,0,1,.792.516l1.254,1.058h-1.2l-.956-.807c-.279-.235-.513-.414-.692-.537a2.121,2.121,0,0,0-.487-.259,2.156,2.156,0,0,0-.436-.1,4.98,4.98,0,0,0-.533-.018h-1.11V413.9Zm.961-2.169h2.056a5.473,5.473,0,0,0,1.025-.073,1.212,1.212,0,0,0,.561-.234.454.454,0,0,0,.192-.347c0-.185-.123-.336-.372-.456a2.9,2.9,0,0,0-1.174-.177h-2.289v1.286Zm6.032.279a1.678,1.678,0,0,1,.969-1.513,5.055,5.055,0,0,1,2.5-.546,6,6,0,0,1,1.812.256,2.777,2.777,0,0,1,1.225.716,1.486,1.486,0,0,1-.021,2.1,2.79,2.79,0,0,1-1.258.706,6.27,6.27,0,0,1-1.761.239,5.824,5.824,0,0,1-1.83-.265,2.78,2.78,0,0,1-1.22-.722,1.421,1.421,0,0,1-.415-.968Zm.992.01a1.228,1.228,0,0,0,.7,1.1,4.082,4.082,0,0,0,3.545,0,1.27,1.27,0,0,0,.7-1.155,1.23,1.23,0,0,0-.3-.825,1.883,1.883,0,0,0-.872-.547,3.993,3.993,0,0,0-1.294-.195,3.816,3.816,0,0,0-1.748.373,1.294,1.294,0,0,0-.733,1.25Zm7.221,1.88v-3.884H227.4v.455h-3.925v1.212h3.4v.454h-3.4V413.9Zm6.15,0v-3.884H233.9v.455h-4.271v1.194h4v.456h-4v1.324h4.442v.455Zm6.414-1.247.9-.045a.806.806,0,0,0,.3.482,1.894,1.894,0,0,0,.728.3,4.9,4.9,0,0,0,1.11.115,4.726,4.726,0,0,0,.969-.088,1.587,1.587,0,0,0,.623-.241.426.426,0,0,0,.208-.333.389.389,0,0,0-.2-.319,1.875,1.875,0,0,0-.651-.227c-.195-.04-.625-.1-1.289-.19a10.858,10.858,0,0,1-1.4-.242,2.085,2.085,0,0,1-.772-.362.632.632,0,0,1-.254-.483.72.72,0,0,1,.31-.553,2.17,2.17,0,0,1,.91-.387,6.094,6.094,0,0,1,1.328-.133,6.431,6.431,0,0,1,1.42.14,2.256,2.256,0,0,1,.946.408.862.862,0,0,1,.354.613l-.92.038a.767.767,0,0,0-.5-.554,3.233,3.233,0,0,0-1.264-.19,3.437,3.437,0,0,0-1.266.171c-.264.115-.4.252-.4.411,0,.14.092.254.282.345a6.1,6.1,0,0,0,1.443.276c.779.1,1.315.177,1.6.249a2.506,2.506,0,0,1,.933.395.691.691,0,0,1,.3.552.766.766,0,0,1-.331.582,2.368,2.368,0,0,1-.949.425,5.738,5.738,0,0,1-1.392.153,7.544,7.544,0,0,1-1.646-.153,2.547,2.547,0,0,1-1.041-.463.949.949,0,0,1-.4-.7Zm6.748,0,.9-.045a.832.832,0,0,0,.3.482,1.9,1.9,0,0,0,.728.3,4.919,4.919,0,0,0,1.112.115,4.718,4.718,0,0,0,.966-.088,1.6,1.6,0,0,0,.626-.241.43.43,0,0,0,.205-.333.392.392,0,0,0-.2-.319,1.869,1.869,0,0,0-.654-.227q-.288-.061-1.289-.19a10.952,10.952,0,0,1-1.4-.242,2.049,2.049,0,0,1-.769-.362.627.627,0,0,1-.256-.483.724.724,0,0,1,.313-.553,2.145,2.145,0,0,1,.908-.387,6.094,6.094,0,0,1,1.328-.133,6.431,6.431,0,0,1,1.42.14,2.256,2.256,0,0,1,.946.408.865.865,0,0,1,.356.613l-.92.038a.768.768,0,0,0-.5-.554,3.242,3.242,0,0,0-1.264-.19,3.427,3.427,0,0,0-1.266.171q-.4.172-.4.411c0,.14.1.254.279.345a6.2,6.2,0,0,0,1.448.276c.779.1,1.312.177,1.6.249a2.488,2.488,0,0,1,.933.395.694.694,0,0,1,.3.552.766.766,0,0,1-.331.582,2.364,2.364,0,0,1-.951.425,5.738,5.738,0,0,1-1.392.153,7.518,7.518,0,0,1-1.643-.153,2.548,2.548,0,0,1-1.041-.463.961.961,0,0,1-.4-.7Zm7.224,1.247v-3.884h.961V413.9Zm2.358-1.89a1.68,1.68,0,0,1,.966-1.513,5.066,5.066,0,0,1,2.5-.546,5.964,5.964,0,0,1,1.807.256,2.781,2.781,0,0,1,1.23.716,1.511,1.511,0,0,1,.423,1.041,1.484,1.484,0,0,1-.446,1.056,2.777,2.777,0,0,1-1.259.706,6.268,6.268,0,0,1-1.761.239,5.835,5.835,0,0,1-1.83-.265,2.779,2.779,0,0,1-1.22-.722,1.417,1.417,0,0,1-.413-.968Zm.989.01a1.233,1.233,0,0,0,.7,1.1,4.088,4.088,0,0,0,3.548,0,1.273,1.273,0,0,0,.7-1.155,1.229,1.229,0,0,0-.3-.825,1.883,1.883,0,0,0-.871-.547,3.989,3.989,0,0,0-1.292-.195,3.813,3.813,0,0,0-1.751.373,1.294,1.294,0,0,0-.733,1.25Zm7.162,1.88v-3.884h.982l3.8,3.048v-3.048h.92V413.9h-.984l-3.8-3.048V413.9Zm6.519,0,2.776-3.884h1.054l2.948,3.884h-1.09l-.836-1.177H267.88L267.1,413.9Zm2.084-1.595h2.469l-.756-1.076c-.228-.328-.4-.6-.52-.811a3.7,3.7,0,0,1-.4.746l-.795,1.14Zm5.417,1.595v-3.884h.959v3.429H278.1v.455Z" transform="translate(-127.374 -204.245)" fill="#fff" fill-rule="evenodd"/></g></svg>