<svg xmlns="http://www.w3.org/2000/svg" width="222.521" height="222.521" viewBox="0 0 222.521 222.521"><g transform="translate(-786.57 -589.623)"><g transform="translate(792.177 593.215)"><g transform="translate(205.531 74.739)"><rect width="4.566" height="4.566" rx="2.283" transform="translate(0 3.229) rotate(-45)" fill="#d49d00"/></g><g transform="translate(205.531 93.423)"><rect width="4.566" height="4.566" rx="2.283" transform="translate(0 3.229) rotate(-45)" fill="#d49d00"/></g><g transform="translate(205.531 112.108)"><rect width="4.566" height="4.566" rx="2.283" transform="translate(0 3.229) rotate(-45)" fill="#d49d00"/></g><g transform="translate(205.531 130.792)"><rect width="4.566" height="4.566" rx="2.283" transform="translate(0 3.229) rotate(-45)" fill="#d49d00"/></g><g transform="translate(205.531 149.477)"><rect width="4.566" height="4.566" rx="2.283" transform="translate(0 3.229) rotate(-45)" fill="#d49d00"/></g><g transform="translate(186.847 37.369)"><rect width="4.566" height="4.566" rx="2.283" transform="translate(0 3.229) rotate(-45)" fill="#d49d00"/></g><g transform="translate(186.847 56.054)"><rect width="4.566" height="4.566" rx="2.283" transform="translate(0 3.229) rotate(-45)" fill="#d49d00"/></g><g transform="translate(186.847 74.739)"><rect width="4.566" height="4.566" rx="2.283" transform="translate(0 3.229) rotate(-45)" fill="#d49d00"/></g><g transform="translate(186.847 93.423)"><rect width="4.566" height="4.566" rx="2.283" transform="translate(0 3.229) rotate(-45)" fill="#d49d00"/></g><g transform="translate(186.847 112.108)"><rect width="4.566" height="4.566" rx="2.283" transform="translate(0 3.229) rotate(-45)" fill="#d49d00"/></g><g transform="translate(186.847 130.792)"><rect width="4.566" height="4.566" rx="2.283" transform="translate(0 3.229) rotate(-45)" fill="#d49d00"/></g><g transform="translate(186.847 149.477)"><rect width="4.566" height="4.566" rx="2.283" transform="translate(0 3.229) rotate(-45)" fill="#d49d00"/></g><g transform="translate(186.847 168.162)"><rect width="4.566" height="4.566" rx="2.283" transform="translate(0 3.229) rotate(-45)" fill="#d49d00"/></g><g transform="translate(168.162 18.685)"><rect width="4.566" height="4.566" rx="2.283" transform="translate(0 3.229) rotate(-45)" fill="#d49d00"/></g><g transform="translate(168.162 37.369)"><rect width="4.566" height="4.566" rx="2.283" transform="translate(0 3.229) rotate(-45)" fill="#d49d00"/></g><g transform="translate(168.162 56.054)"><rect width="4.566" height="4.566" rx="2.283" transform="translate(0 3.229) rotate(-45)" fill="#d49d00"/></g><g transform="translate(168.162 74.739)"><rect width="4.566" height="4.566" rx="2.283" transform="translate(0 3.229) rotate(-45)" fill="#d49d00"/></g><g transform="translate(168.162 93.423)"><rect width="4.566" height="4.566" rx="2.283" transform="translate(0 3.229) rotate(-45)" fill="#d49d00"/></g><g transform="translate(168.162 112.108)"><rect width="4.566" height="4.566" rx="2.283" transform="translate(0 3.229) rotate(-45)" fill="#d49d00"/></g><g transform="translate(168.162 130.792)"><rect width="4.566" height="4.566" rx="2.283" transform="translate(0 3.229) rotate(-45)" fill="#d49d00"/></g><g transform="translate(168.162 149.477)"><rect width="4.566" height="4.566" rx="2.283" transform="translate(0 3.229) rotate(-45)" fill="#d49d00"/></g><g transform="translate(168.162 168.162)"><rect width="4.566" height="4.566" rx="2.283" transform="translate(0 3.229) rotate(-45)" fill="#d49d00"/></g><g transform="translate(168.162 186.846)"><rect width="4.566" height="4.566" rx="2.283" transform="translate(0 3.229) rotate(-45)" fill="#d49d00"/></g><g transform="translate(149.477 18.685)"><rect width="4.566" height="4.566" rx="2.283" transform="translate(0 3.229) rotate(-45)" fill="#d49d00"/></g><g transform="translate(149.477 37.369)"><rect width="4.566" height="4.566" rx="2.283" transform="translate(0 3.229) rotate(-45)" fill="#d49d00"/></g><g transform="translate(149.477 56.054)"><rect width="4.566" height="4.566" rx="2.283" transform="translate(0 3.229) rotate(-45)" fill="#d49d00"/></g><g transform="translate(149.477 74.739)"><rect width="4.566" height="4.566" rx="2.283" transform="translate(0 3.229) rotate(-45)" fill="#d49d00"/></g><g transform="translate(149.477 93.423)"><rect width="4.566" height="4.566" rx="2.283" transform="translate(0 3.229) rotate(-45)" fill="#d49d00"/></g><g transform="translate(149.477 112.108)"><rect width="4.566" height="4.566" rx="2.283" transform="translate(0 3.229) rotate(-45)" fill="#d49d00"/></g><g transform="translate(149.477 130.792)"><rect width="4.566" height="4.566" rx="2.283" transform="translate(0 3.229) rotate(-45)" fill="#d49d00"/></g><g transform="translate(149.477 149.477)"><rect width="4.566" height="4.566" rx="2.283" transform="translate(0 3.229) rotate(-45)" fill="#d49d00"/></g><g transform="translate(149.477 168.162)"><rect width="4.566" height="4.566" rx="2.283" transform="translate(0 3.229) rotate(-45)" fill="#d49d00"/></g><g transform="translate(149.477 186.846)"><rect width="4.566" height="4.566" rx="2.283" transform="translate(0 3.229) rotate(-45)" fill="#d49d00"/></g><g transform="translate(149.477 205.531)"><rect width="4.566" height="4.566" rx="2.283" transform="translate(0 3.229) rotate(-45)" fill="#d49d00"/></g><g transform="translate(130.793 0)"><rect width="4.566" height="4.566" rx="2.283" transform="translate(0 3.229) rotate(-45)" fill="#d49d00"/></g><g transform="translate(130.793 18.685)"><rect width="4.566" height="4.566" rx="2.283" transform="translate(0 3.229) rotate(-45)" fill="#d49d00"/></g><g transform="translate(130.793 37.369)"><rect width="4.566" height="4.566" rx="2.283" transform="translate(0 3.229) rotate(-45)" fill="#d49d00"/></g><g transform="translate(130.793 56.054)"><rect width="4.566" height="4.566" rx="2.283" transform="translate(0 3.229) rotate(-45)" fill="#d49d00"/></g><g transform="translate(130.793 74.739)"><rect width="4.566" height="4.566" rx="2.283" transform="translate(0 3.229) rotate(-45)" fill="#d49d00"/></g><g transform="translate(130.793 93.423)"><rect width="4.566" height="4.566" rx="2.283" transform="translate(0 3.229) rotate(-45)" fill="#d49d00"/></g><g transform="translate(130.793 112.108)"><rect width="4.566" height="4.566" rx="2.283" transform="translate(0 3.229) rotate(-45)" fill="#d49d00"/></g><g transform="translate(130.793 130.792)"><rect width="4.566" height="4.566" rx="2.283" transform="translate(0 3.229) rotate(-45)" fill="#d49d00"/></g><g transform="translate(130.793 149.477)"><rect width="4.566" height="4.566" rx="2.283" transform="translate(0 3.229) rotate(-45)" fill="#d49d00"/></g><g transform="translate(130.793 168.162)"><rect width="4.566" height="4.566" rx="2.283" transform="translate(0 3.229) rotate(-45)" fill="#d49d00"/></g><g transform="translate(130.793 186.846)"><rect width="4.566" height="4.566" rx="2.283" transform="translate(0 3.229) rotate(-45)" fill="#d49d00"/></g><g transform="translate(130.793 205.531)"><rect width="4.566" height="4.566" rx="2.283" transform="translate(0 3.229) rotate(-45)" fill="#d49d00"/></g><g transform="translate(112.108 0)"><rect width="4.566" height="4.566" rx="2.283" transform="translate(0 3.229) rotate(-45)" fill="#d49d00"/></g><g transform="translate(112.108 18.685)"><rect width="4.566" height="4.566" rx="2.283" transform="translate(0 3.229) rotate(-45)" fill="#d49d00"/></g><g transform="translate(112.108 37.369)"><rect width="4.566" height="4.566" rx="2.283" transform="translate(0 3.229) rotate(-45)" fill="#d49d00"/></g><g transform="translate(112.108 56.054)"><rect width="4.566" height="4.566" rx="2.283" transform="translate(0 3.229) rotate(-45)" fill="#d49d00"/></g><g transform="translate(112.108 74.739)"><rect width="4.566" height="4.566" rx="2.283" transform="translate(0 3.229) rotate(-45)" fill="#d49d00"/></g><g transform="translate(112.108 93.423)"><rect width="4.566" height="4.566" rx="2.283" transform="translate(0 3.229) rotate(-45)" fill="#d49d00"/></g><g transform="translate(112.108 112.108)"><rect width="4.566" height="4.566" rx="2.283" transform="translate(0 3.229) rotate(-45)" fill="#d49d00"/></g><g transform="translate(112.108 130.792)"><rect width="4.566" height="4.566" rx="2.283" transform="translate(0 3.229) rotate(-45)" fill="#d49d00"/></g><g transform="translate(112.108 149.477)"><rect width="4.566" height="4.566" rx="2.283" transform="translate(0 3.229) rotate(-45)" fill="#d49d00"/></g><g transform="translate(112.108 168.162)"><rect width="4.566" height="4.566" rx="2.283" transform="translate(0 3.229) rotate(-45)" fill="#d49d00"/></g><g transform="translate(112.108 186.846)"><rect width="4.566" height="4.566" rx="2.283" transform="translate(0 3.229) rotate(-45)" fill="#d49d00"/></g><g transform="translate(112.108 205.531)"><rect width="4.566" height="4.566" rx="2.283" transform="translate(0 3.229) rotate(-45)" fill="#d49d00"/></g><g transform="translate(93.423 0)"><rect width="4.566" height="4.566" rx="2.283" transform="translate(0 3.229) rotate(-45)" fill="#d49d00"/></g><g transform="translate(74.739 0)"><rect width="4.566" height="4.566" rx="2.283" transform="translate(0 3.229) rotate(-45)" fill="#d49d00"/></g><g transform="translate(93.423 18.685)"><rect width="4.566" height="4.566" rx="2.283" transform="translate(0 3.229) rotate(-45)" fill="#d49d00"/></g><g transform="translate(93.423 37.369)"><rect width="4.566" height="4.566" rx="2.283" transform="translate(0 3.229) rotate(-45)" fill="#d49d00"/></g><g transform="translate(93.423 56.054)"><rect width="4.566" height="4.566" rx="2.283" transform="translate(0 3.229) rotate(-45)" fill="#d49d00"/></g><g transform="translate(93.423 74.739)"><rect width="4.566" height="4.566" rx="2.283" transform="translate(0 3.229) rotate(-45)" fill="#d49d00"/></g><g transform="translate(93.423 93.423)"><rect width="4.566" height="4.566" rx="2.283" transform="translate(0 3.229) rotate(-45)" fill="#d49d00"/></g><g transform="translate(93.423 112.108)"><rect width="4.566" height="4.566" rx="2.283" transform="translate(0 3.229) rotate(-45)" fill="#d49d00"/></g><g transform="translate(93.423 130.792)"><rect width="4.566" height="4.566" rx="2.283" transform="translate(0 3.229) rotate(-45)" fill="#d49d00"/></g><g transform="translate(93.423 149.477)"><rect width="4.566" height="4.566" rx="2.283" transform="translate(0 3.229) rotate(-45)" fill="#d49d00"/></g><g transform="translate(93.423 168.162)"><rect width="4.566" height="4.566" rx="2.283" transform="translate(0 3.229) rotate(-45)" fill="#d49d00"/></g><g transform="translate(93.423 186.846)"><rect width="4.566" height="4.566" rx="2.283" transform="translate(0 3.229) rotate(-45)" fill="#d49d00"/></g><g transform="translate(93.423 205.531)"><rect width="4.566" height="4.566" rx="2.283" transform="translate(0 3.229) rotate(-45)" fill="#d49d00"/></g><g transform="translate(74.739 18.685)"><rect width="4.566" height="4.566" rx="2.283" transform="translate(0 3.229) rotate(-45)" fill="#d49d00"/></g><g transform="translate(74.739 37.369)"><rect width="4.566" height="4.566" rx="2.283" transform="translate(0 3.229) rotate(-45)" fill="#d49d00"/></g><g transform="translate(74.739 56.054)"><rect width="4.566" height="4.566" rx="2.283" transform="translate(0 3.229) rotate(-45)" fill="#d49d00"/></g><g transform="translate(74.739 74.739)"><rect width="4.566" height="4.566" rx="2.283" transform="translate(0 3.229) rotate(-45)" fill="#d49d00"/></g><g transform="translate(74.739 93.423)"><rect width="4.566" height="4.566" rx="2.283" transform="translate(0 3.229) rotate(-45)" fill="#d49d00"/></g><g transform="translate(74.739 112.108)"><rect width="4.566" height="4.566" rx="2.283" transform="translate(0 3.229) rotate(-45)" fill="#d49d00"/></g><g transform="translate(74.739 130.792)"><rect width="4.566" height="4.566" rx="2.283" transform="translate(0 3.229) rotate(-45)" fill="#d49d00"/></g><g transform="translate(74.739 149.477)"><rect width="4.566" height="4.566" rx="2.283" transform="translate(0 3.229) rotate(-45)" fill="#d49d00"/></g><g transform="translate(74.739 168.162)"><rect width="4.566" height="4.566" rx="2.283" transform="translate(0 3.229) rotate(-45)" fill="#d49d00"/></g><g transform="translate(74.739 186.846)"><rect width="4.566" height="4.566" rx="2.283" transform="translate(0 3.229) rotate(-45)" fill="#d49d00"/></g><g transform="translate(74.739 205.531)"><rect width="4.566" height="4.566" rx="2.283" transform="translate(0 3.229) rotate(-45)" fill="#d49d00"/></g><g transform="translate(56.054 18.685)"><rect width="4.566" height="4.566" rx="2.283" transform="translate(0 3.229) rotate(-45)" fill="#d49d00"/></g><g transform="translate(56.054 37.369)"><rect width="4.566" height="4.566" rx="2.283" transform="translate(0 3.229) rotate(-45)" fill="#d49d00"/></g><g transform="translate(56.054 56.054)"><rect width="4.566" height="4.566" rx="2.283" transform="translate(0 3.229) rotate(-45)" fill="#d49d00"/></g><g transform="translate(56.054 74.739)"><rect width="4.566" height="4.566" rx="2.283" transform="translate(0 3.229) rotate(-45)" fill="#d49d00"/></g><g transform="translate(56.054 93.423)"><rect width="4.566" height="4.566" rx="2.283" transform="translate(0 3.229) rotate(-45)" fill="#d49d00"/></g><g transform="translate(56.054 112.108)"><rect width="4.566" height="4.566" rx="2.283" transform="translate(0 3.229) rotate(-45)" fill="#d49d00"/></g><g transform="translate(56.054 130.792)"><rect width="4.566" height="4.566" rx="2.283" transform="translate(0 3.229) rotate(-45)" fill="#d49d00"/></g><g transform="translate(56.054 149.477)"><rect width="4.566" height="4.566" rx="2.283" transform="translate(0 3.229) rotate(-45)" fill="#d49d00"/></g><g transform="translate(56.054 168.162)"><rect width="4.566" height="4.566" rx="2.283" transform="translate(0 3.229) rotate(-45)" fill="#d49d00"/></g><g transform="translate(56.054 186.846)"><rect width="4.566" height="4.566" rx="2.283" transform="translate(0 3.229) rotate(-45)" fill="#d49d00"/></g><g transform="translate(56.054 205.531)"><rect width="4.566" height="4.566" rx="2.283" transform="translate(0 3.229) rotate(-45)" fill="#d49d00"/></g><g transform="translate(37.369 18.685)"><rect width="4.566" height="4.566" rx="2.283" transform="translate(0 3.229) rotate(-45)" fill="#d49d00"/></g><g transform="translate(37.369 37.369)"><rect width="4.566" height="4.566" rx="2.283" transform="translate(0 3.229) rotate(-45)" fill="#d49d00"/></g><g transform="translate(37.369 56.054)"><rect width="4.566" height="4.566" rx="2.283" transform="translate(0 3.229) rotate(-45)" fill="#d49d00"/></g><g transform="translate(37.369 74.739)"><rect width="4.566" height="4.566" rx="2.283" transform="translate(0 3.229) rotate(-45)" fill="#d49d00"/></g><g transform="translate(37.369 93.423)"><rect width="4.566" height="4.566" rx="2.283" transform="translate(0 3.229) rotate(-45)" fill="#d49d00"/></g><g transform="translate(37.369 112.108)"><rect width="4.566" height="4.566" rx="2.283" transform="translate(0 3.229) rotate(-45)" fill="#d49d00"/></g><g transform="translate(37.369 130.792)"><rect width="4.566" height="4.566" rx="2.283" transform="translate(0 3.229) rotate(-45)" fill="#d49d00"/></g><g transform="translate(37.369 149.477)"><rect width="4.566" height="4.566" rx="2.283" transform="translate(0 3.229) rotate(-45)" fill="#d49d00"/></g><g transform="translate(37.369 168.162)"><rect width="4.566" height="4.566" rx="2.283" transform="translate(0 3.229) rotate(-45)" fill="#d49d00"/></g><g transform="translate(37.369 186.846)"><rect width="4.566" height="4.566" rx="2.283" transform="translate(0 3.229) rotate(-45)" fill="#d49d00"/></g><g transform="translate(18.685 37.369)"><rect width="4.566" height="4.566" rx="2.283" transform="translate(0 3.229) rotate(-45)" fill="#d49d00"/></g><g transform="translate(18.685 56.054)"><rect width="4.566" height="4.566" rx="2.283" transform="translate(0 3.229) rotate(-45)" fill="#d49d00"/></g><g transform="translate(18.685 74.739)"><rect width="4.566" height="4.566" rx="2.283" transform="translate(0 3.229) rotate(-45)" fill="#d49d00"/></g><g transform="translate(18.685 93.423)"><rect width="4.566" height="4.566" rx="2.283" transform="translate(0 3.229) rotate(-45)" fill="#d49d00"/></g><g transform="translate(18.685 112.108)"><rect width="4.566" height="4.566" rx="2.283" transform="translate(0 3.229) rotate(-45)" fill="#d49d00"/></g><g transform="translate(18.685 130.792)"><rect width="4.566" height="4.566" rx="2.283" transform="translate(0 3.229) rotate(-45)" fill="#d49d00"/></g><g transform="translate(18.685 149.477)"><rect width="4.566" height="4.566" rx="2.283" transform="translate(0 3.229) rotate(-45)" fill="#d49d00"/></g><g transform="translate(18.685 168.162)"><rect width="4.566" height="4.566" rx="2.283" transform="translate(0 3.229) rotate(-45)" fill="#d49d00"/></g><g transform="translate(0 74.739)"><rect width="4.566" height="4.566" rx="2.283" transform="translate(0 3.229) rotate(-45)" fill="#d49d00"/></g><g transform="translate(0 93.423)"><rect width="4.566" height="4.566" rx="2.283" transform="translate(0 3.229) rotate(-45)" fill="#d49d00"/></g><g transform="translate(0 112.108)"><rect width="4.566" height="4.566" rx="2.283" transform="translate(0 3.229) rotate(-45)" fill="#d49d00"/></g><g transform="translate(0 130.792)"><rect width="4.566" height="4.566" rx="2.283" transform="translate(0 3.229) rotate(-45)" fill="#d49d00"/></g><g transform="translate(0 149.477)"><rect width="4.566" height="4.566" rx="2.283" transform="translate(0 3.229) rotate(-45)" fill="#d49d00"/></g></g><circle cx="111.26" cy="111.26" r="111.26" transform="translate(786.57 589.623)" fill="none"/></g></svg>